<?xml version="1.0" encoding="UTF-8" standalone="no"?>
<svg
   width="77.124001"
   height="36"
   viewBox="0 0 77.124 36"
   version="1.1"
   id="svg19"
   sodipodi:docname="icon-facebook-ru-dc.svg"
   inkscape:version="1.1.2 (b8e25be833, 2022-02-05)"
   xmlns:inkscape="http://www.inkscape.org/namespaces/inkscape"
   xmlns:sodipodi="http://sodipodi.sourceforge.net/DTD/sodipodi-0.dtd"
   xmlns="http://www.w3.org/2000/svg"
   xmlns:svg="http://www.w3.org/2000/svg">
  <g
     id="g9">
    <path
       d="m 41.714937,17.882645 q 0,6.575559 -4.494086,10.360053 -4.446781,3.737189 -12.819974,4.162944 v 3.59527 h -7.04862 V 32.358336 Q 8.931758,31.885274 4.4376716,28.148085 q -4.44678028,-3.784494 -4.44678028,-10.26544 0,-6.528252 4.44678028,-10.2181334 Q 8.931758,3.9273238 17.352257,3.4069559 V 9.1150716e-4 h 7.04862 V 3.3596497 q 8.373193,0.4730617 12.819974,4.2575557 4.494086,3.7844936 4.494086,10.2654396 z m -17.31406,8.515112 q 5.014455,-0.473062 7.474376,-2.554534 2.459921,-2.128778 2.459921,-6.007884 0,-7.568988 -9.934297,-8.420499 z M 7.4179606,17.882645 q 0,7.474376 9.9342964,8.515112 V 9.41484 q -5.061761,0.473062 -7.521682,2.554534 -2.4126144,2.034165 -2.4126144,5.913271 z"
       id="path10488"
       style="font-size:16px;line-height:1.25;font-family:Montserrat;-inkscape-font-specification:Montserrat;font-variant-ligatures:none;fill:#ffffff;fill-opacity:1;stroke-width:2.95664" />
    <path
       d="M 47.880087,0.03388741 H 74.608075 V 6.6589127 H 55.496381 V 14.05429 h 9.177398 q 6.007884,0 9.130091,2.721909 3.169514,2.72191 3.169514,7.857589 0,5.392464 -3.500657,8.371158 -3.500657,2.978694 -9.88699,2.978694 H 47.880087 Z M 63.159981,29.820823 q 2.932983,0 4.494087,-1.232562 1.561103,-1.28392 1.561103,-3.697688 0,-4.724825 -6.05519,-4.724825 h -7.6636 v 9.655075 z"
       id="path10490"
       style="font-size:16px;line-height:1.25;font-family:Montserrat;-inkscape-font-specification:Montserrat;font-variant-ligatures:none;fill:#ffffff;fill-opacity:1;stroke-width:3.08062" />
  </g>
  <defs
     id="defs23" />
  <sodipodi:namedview
     id="namedview21"
     pagecolor="#ffffff"
     bordercolor="#666666"
     borderopacity="1.0"
     inkscape:pageshadow="2"
     inkscape:pageopacity="0.0"
     inkscape:pagecheckerboard="0"
     showgrid="false"
     inkscape:snap-text-baseline="true"
     inkscape:zoom="5.611111"
     inkscape:cx="78.415843"
     inkscape:cy="12.920792"
     inkscape:window-width="1299"
     inkscape:window-height="1040"
     inkscape:window-x="255"
     inkscape:window-y="0"
     inkscape:window-maximized="0"
     inkscape:current-layer="svg19"
     width="77.124px"
     height="36px" />
</svg>
